<?xml version="1.0" standalone="no"?>
<svg xmlns:xlink="http://www.w3.org/1999/xlink" id="wave" style="transform:rotate(0deg); transition: 0.3s" viewBox="0 0 1440 490" version="1.1" xmlns="http://www.w3.org/2000/svg"><defs><linearGradient id="sw-gradient-0" x1="0" x2="0" y1="1" y2="0"><stop stop-color="rgba(204, 218, 253, 1)" offset="0%"/><stop stop-color="rgba(204, 218, 253, 1)" offset="100%"/></linearGradient></defs><path style="transform:translate(0, 0px); opacity:1" fill="url(#sw-gradient-0)" d="M0,98L60,122.5C120,147,240,196,360,187.8C480,180,600,114,720,73.5C840,33,960,16,1080,24.5C1200,33,1320,65,1440,81.7C1560,98,1680,98,1800,147C1920,196,2040,294,2160,302.2C2280,310,2400,229,2520,228.7C2640,229,2760,310,2880,318.5C3000,327,3120,261,3240,269.5C3360,278,3480,359,3600,359.3C3720,359,3840,278,3960,245C4080,212,4200,229,4320,261.3C4440,294,4560,343,4680,326.7C4800,310,4920,229,5040,187.8C5160,147,5280,147,5400,163.3C5520,180,5640,212,5760,253.2C5880,294,6000,343,6120,302.2C6240,261,6360,131,6480,106.2C6600,82,6720,163,6840,228.7C6960,294,7080,343,7200,375.7C7320,408,7440,425,7560,367.5C7680,310,7800,180,7920,171.5C8040,163,8160,278,8280,269.5C8400,261,8520,131,8580,65.3L8640,0L8640,490L8580,490C8520,490,8400,490,8280,490C8160,490,8040,490,7920,490C7800,490,7680,490,7560,490C7440,490,7320,490,7200,490C7080,490,6960,490,6840,490C6720,490,6600,490,6480,490C6360,490,6240,490,6120,490C6000,490,5880,490,5760,490C5640,490,5520,490,5400,490C5280,490,5160,490,5040,490C4920,490,4800,490,4680,490C4560,490,4440,490,4320,490C4200,490,4080,490,3960,490C3840,490,3720,490,3600,490C3480,490,3360,490,3240,490C3120,490,3000,490,2880,490C2760,490,2640,490,2520,490C2400,490,2280,490,2160,490C2040,490,1920,490,1800,490C1680,490,1560,490,1440,490C1320,490,1200,490,1080,490C960,490,840,490,720,490C600,490,480,490,360,490C240,490,120,490,60,490L0,490Z"/></svg>